<mxfile host="app.diagrams.net" modified="2023-04-12T20:33:05.511Z" agent="Mozilla/5.0 (Macintosh; Intel Mac OS X 10_15_7) AppleWebKit/605.1.15 (KHTML, like Gecko) Version/15.6.1 Safari/605.1.15" etag="08KBtsRCLWKJp0eBeA3R" version="21.1.7" type="device">
  <diagram name="Seite-1" id="mXc9eJjy48PCdcYGGqnQ">
    <mxGraphModel dx="852" dy="596" grid="1" gridSize="10" guides="1" tooltips="1" connect="1" arrows="1" fold="1" page="1" pageScale="1" pageWidth="827" pageHeight="1169" math="0" shadow="0">
      <root>
        <mxCell id="0" />
        <mxCell id="1" parent="0" />
        <mxCell id="dW_r33bw40_CPsYAS7l7-7" style="edgeStyle=orthogonalEdgeStyle;rounded=0;orthogonalLoop=1;jettySize=auto;html=1;exitX=0;exitY=0.75;exitDx=0;exitDy=0;entryX=1;entryY=0.75;entryDx=0;entryDy=0;dashed=1;" edge="1" parent="1" source="dW_r33bw40_CPsYAS7l7-1" target="dW_r33bw40_CPsYAS7l7-2">
          <mxGeometry relative="1" as="geometry">
            <Array as="points">
              <mxPoint x="180" y="525" />
              <mxPoint x="180" y="405" />
            </Array>
          </mxGeometry>
        </mxCell>
        <mxCell id="dW_r33bw40_CPsYAS7l7-9" style="edgeStyle=orthogonalEdgeStyle;rounded=0;orthogonalLoop=1;jettySize=auto;html=1;exitX=0;exitY=0.75;exitDx=0;exitDy=0;entryX=1;entryY=0.75;entryDx=0;entryDy=0;dashed=1;" edge="1" parent="1" source="dW_r33bw40_CPsYAS7l7-1" target="dW_r33bw40_CPsYAS7l7-3">
          <mxGeometry relative="1" as="geometry" />
        </mxCell>
        <mxCell id="dW_r33bw40_CPsYAS7l7-10" style="edgeStyle=orthogonalEdgeStyle;rounded=0;orthogonalLoop=1;jettySize=auto;html=1;exitX=0;exitY=0.75;exitDx=0;exitDy=0;entryX=1;entryY=0.75;entryDx=0;entryDy=0;dashed=1;" edge="1" parent="1" source="dW_r33bw40_CPsYAS7l7-1" target="dW_r33bw40_CPsYAS7l7-5">
          <mxGeometry relative="1" as="geometry">
            <Array as="points">
              <mxPoint x="180" y="525" />
              <mxPoint x="180" y="645" />
            </Array>
          </mxGeometry>
        </mxCell>
        <mxCell id="dW_r33bw40_CPsYAS7l7-12" value="&amp;lt;&amp;lt;einschließen&amp;gt;&amp;gt;" style="edgeLabel;html=1;align=center;verticalAlign=middle;resizable=0;points=[];" vertex="1" connectable="0" parent="dW_r33bw40_CPsYAS7l7-10">
          <mxGeometry x="-0.6714" y="1" relative="1" as="geometry">
            <mxPoint x="-11" as="offset" />
          </mxGeometry>
        </mxCell>
        <mxCell id="dW_r33bw40_CPsYAS7l7-1" value="Rolle" style="shape=actor;whiteSpace=wrap;html=1;labelPosition=center;verticalLabelPosition=bottom;align=center;verticalAlign=top;" vertex="1" parent="1">
          <mxGeometry x="300" y="480" width="40" height="60" as="geometry" />
        </mxCell>
        <mxCell id="dW_r33bw40_CPsYAS7l7-2" value="Alice" style="shape=actor;whiteSpace=wrap;html=1;labelPosition=center;verticalLabelPosition=bottom;align=center;verticalAlign=top;" vertex="1" parent="1">
          <mxGeometry x="80" y="360" width="40" height="60" as="geometry" />
        </mxCell>
        <mxCell id="dW_r33bw40_CPsYAS7l7-3" value="Bob" style="shape=actor;whiteSpace=wrap;html=1;labelPosition=center;verticalLabelPosition=bottom;align=center;verticalAlign=top;" vertex="1" parent="1">
          <mxGeometry x="80" y="480" width="40" height="60" as="geometry" />
        </mxCell>
        <mxCell id="dW_r33bw40_CPsYAS7l7-5" value="Eve" style="shape=actor;whiteSpace=wrap;html=1;labelPosition=center;verticalLabelPosition=bottom;align=center;verticalAlign=top;" vertex="1" parent="1">
          <mxGeometry x="80" y="600" width="40" height="60" as="geometry" />
        </mxCell>
        <mxCell id="dW_r33bw40_CPsYAS7l7-13" value="" style="rounded=0;whiteSpace=wrap;html=1;" vertex="1" parent="1">
          <mxGeometry x="400" y="80" width="320" height="580" as="geometry" />
        </mxCell>
        <mxCell id="dW_r33bw40_CPsYAS7l7-14" value="QuaKrypto" style="text;html=1;strokeColor=none;fillColor=none;align=center;verticalAlign=middle;whiteSpace=wrap;rounded=0;" vertex="1" parent="1">
          <mxGeometry x="410" y="80" width="60" height="30" as="geometry" />
        </mxCell>
        <mxCell id="dW_r33bw40_CPsYAS7l7-15" value="Einsicht des Wikis" style="ellipse;whiteSpace=wrap;html=1;" vertex="1" parent="1">
          <mxGeometry x="450" y="110" width="220" height="50" as="geometry" />
        </mxCell>
        <mxCell id="dW_r33bw40_CPsYAS7l7-16" value="Verwaltung des Wikis" style="ellipse;whiteSpace=wrap;html=1;" vertex="1" parent="1">
          <mxGeometry x="450" y="170" width="220" height="50" as="geometry" />
        </mxCell>
        <mxCell id="dW_r33bw40_CPsYAS7l7-17" value="Nachricht senden" style="ellipse;whiteSpace=wrap;html=1;" vertex="1" parent="1">
          <mxGeometry x="450" y="410" width="220" height="50" as="geometry" />
        </mxCell>
        <mxCell id="dW_r33bw40_CPsYAS7l7-19" style="edgeStyle=orthogonalEdgeStyle;rounded=0;orthogonalLoop=1;jettySize=auto;html=1;exitX=0.5;exitY=1;exitDx=0;exitDy=0;entryX=0.5;entryY=0;entryDx=0;entryDy=0;" edge="1" parent="1" source="dW_r33bw40_CPsYAS7l7-18" target="dW_r33bw40_CPsYAS7l7-1">
          <mxGeometry relative="1" as="geometry" />
        </mxCell>
        <mxCell id="dW_r33bw40_CPsYAS7l7-21" value="nimmt ein" style="edgeLabel;html=1;align=center;verticalAlign=middle;resizable=0;points=[];" vertex="1" connectable="0" parent="dW_r33bw40_CPsYAS7l7-19">
          <mxGeometry x="-0.3421" y="3" relative="1" as="geometry">
            <mxPoint x="-3" y="36" as="offset" />
          </mxGeometry>
        </mxCell>
        <mxCell id="dW_r33bw40_CPsYAS7l7-27" style="rounded=0;orthogonalLoop=1;jettySize=auto;html=1;exitX=1;exitY=0.75;exitDx=0;exitDy=0;entryX=0;entryY=0.5;entryDx=0;entryDy=0;endArrow=none;endFill=0;" edge="1" parent="1" source="dW_r33bw40_CPsYAS7l7-18" target="dW_r33bw40_CPsYAS7l7-15">
          <mxGeometry relative="1" as="geometry" />
        </mxCell>
        <mxCell id="dW_r33bw40_CPsYAS7l7-28" style="rounded=0;orthogonalLoop=1;jettySize=auto;html=1;exitX=1;exitY=0.75;exitDx=0;exitDy=0;entryX=0;entryY=0.5;entryDx=0;entryDy=0;endArrow=none;endFill=0;" edge="1" parent="1" source="dW_r33bw40_CPsYAS7l7-18" target="dW_r33bw40_CPsYAS7l7-16">
          <mxGeometry relative="1" as="geometry" />
        </mxCell>
        <mxCell id="dW_r33bw40_CPsYAS7l7-18" value="Benutzergruppe" style="shape=actor;whiteSpace=wrap;html=1;labelPosition=center;verticalLabelPosition=top;align=center;verticalAlign=bottom;" vertex="1" parent="1">
          <mxGeometry x="300" y="210" width="40" height="60" as="geometry" />
        </mxCell>
        <mxCell id="dW_r33bw40_CPsYAS7l7-20" value="Nachricht empfangen" style="ellipse;whiteSpace=wrap;html=1;" vertex="1" parent="1">
          <mxGeometry x="450" y="470" width="220" height="50" as="geometry" />
        </mxCell>
        <mxCell id="dW_r33bw40_CPsYAS7l7-22" value="Anzeigen der Aufzeichnung" style="ellipse;whiteSpace=wrap;html=1;" vertex="1" parent="1">
          <mxGeometry x="450" y="230" width="220" height="50" as="geometry" />
        </mxCell>
        <mxCell id="dW_r33bw40_CPsYAS7l7-23" value="Vorhandenen Übungsszenarien beitreten" style="ellipse;whiteSpace=wrap;html=1;" vertex="1" parent="1">
          <mxGeometry x="450" y="290" width="220" height="50" as="geometry" />
        </mxCell>
        <mxCell id="dW_r33bw40_CPsYAS7l7-24" value="Definition eines Übungsszenarios" style="ellipse;whiteSpace=wrap;html=1;" vertex="1" parent="1">
          <mxGeometry x="450" y="350" width="220" height="50" as="geometry" />
        </mxCell>
        <mxCell id="dW_r33bw40_CPsYAS7l7-25" value="Nachricht abhören" style="ellipse;whiteSpace=wrap;html=1;" vertex="1" parent="1">
          <mxGeometry x="450" y="530" width="220" height="50" as="geometry" />
        </mxCell>
        <mxCell id="dW_r33bw40_CPsYAS7l7-26" value="One-Time-Pad vereinbaren" style="ellipse;whiteSpace=wrap;html=1;" vertex="1" parent="1">
          <mxGeometry x="450" y="590" width="220" height="50" as="geometry" />
        </mxCell>
        <mxCell id="dW_r33bw40_CPsYAS7l7-29" style="rounded=0;orthogonalLoop=1;jettySize=auto;html=1;exitX=1;exitY=0.75;exitDx=0;exitDy=0;entryX=0;entryY=0.5;entryDx=0;entryDy=0;endArrow=none;endFill=0;" edge="1" parent="1" source="dW_r33bw40_CPsYAS7l7-18" target="dW_r33bw40_CPsYAS7l7-22">
          <mxGeometry relative="1" as="geometry">
            <mxPoint x="346" y="260" as="sourcePoint" />
            <mxPoint x="460" y="205" as="targetPoint" />
          </mxGeometry>
        </mxCell>
        <mxCell id="dW_r33bw40_CPsYAS7l7-30" style="rounded=0;orthogonalLoop=1;jettySize=auto;html=1;exitX=1;exitY=0.75;exitDx=0;exitDy=0;entryX=0;entryY=0.5;entryDx=0;entryDy=0;endArrow=none;endFill=0;" edge="1" parent="1" source="dW_r33bw40_CPsYAS7l7-18" target="dW_r33bw40_CPsYAS7l7-23">
          <mxGeometry relative="1" as="geometry">
            <mxPoint x="356" y="270" as="sourcePoint" />
            <mxPoint x="470" y="215" as="targetPoint" />
          </mxGeometry>
        </mxCell>
        <mxCell id="dW_r33bw40_CPsYAS7l7-32" style="rounded=0;orthogonalLoop=1;jettySize=auto;html=1;exitX=1;exitY=0.75;exitDx=0;exitDy=0;entryX=0;entryY=0.5;entryDx=0;entryDy=0;endArrow=none;endFill=0;" edge="1" parent="1" source="dW_r33bw40_CPsYAS7l7-18" target="dW_r33bw40_CPsYAS7l7-24">
          <mxGeometry relative="1" as="geometry">
            <mxPoint x="366" y="280" as="sourcePoint" />
            <mxPoint x="480" y="225" as="targetPoint" />
          </mxGeometry>
        </mxCell>
        <mxCell id="dW_r33bw40_CPsYAS7l7-33" style="rounded=0;orthogonalLoop=1;jettySize=auto;html=1;exitX=1;exitY=0.75;exitDx=0;exitDy=0;entryX=0;entryY=0.5;entryDx=0;entryDy=0;endArrow=none;endFill=0;" edge="1" parent="1" source="dW_r33bw40_CPsYAS7l7-1" target="dW_r33bw40_CPsYAS7l7-17">
          <mxGeometry relative="1" as="geometry">
            <mxPoint x="376" y="290" as="sourcePoint" />
            <mxPoint x="490" y="235" as="targetPoint" />
          </mxGeometry>
        </mxCell>
        <mxCell id="dW_r33bw40_CPsYAS7l7-34" style="rounded=0;orthogonalLoop=1;jettySize=auto;html=1;exitX=1;exitY=0.75;exitDx=0;exitDy=0;entryX=0;entryY=0.5;entryDx=0;entryDy=0;endArrow=none;endFill=0;" edge="1" parent="1" source="dW_r33bw40_CPsYAS7l7-1" target="dW_r33bw40_CPsYAS7l7-20">
          <mxGeometry relative="1" as="geometry">
            <mxPoint x="386" y="300" as="sourcePoint" />
            <mxPoint x="500" y="245" as="targetPoint" />
          </mxGeometry>
        </mxCell>
        <mxCell id="dW_r33bw40_CPsYAS7l7-35" style="rounded=0;orthogonalLoop=1;jettySize=auto;html=1;exitX=1;exitY=0.75;exitDx=0;exitDy=0;endArrow=none;endFill=0;entryX=0;entryY=0.5;entryDx=0;entryDy=0;" edge="1" parent="1" source="dW_r33bw40_CPsYAS7l7-1" target="dW_r33bw40_CPsYAS7l7-25">
          <mxGeometry relative="1" as="geometry">
            <mxPoint x="396" y="310" as="sourcePoint" />
            <mxPoint x="440" y="490" as="targetPoint" />
          </mxGeometry>
        </mxCell>
        <mxCell id="dW_r33bw40_CPsYAS7l7-36" style="rounded=0;orthogonalLoop=1;jettySize=auto;html=1;exitX=1;exitY=0.75;exitDx=0;exitDy=0;entryX=0;entryY=0.5;entryDx=0;entryDy=0;endArrow=none;endFill=0;" edge="1" parent="1" source="dW_r33bw40_CPsYAS7l7-1" target="dW_r33bw40_CPsYAS7l7-26">
          <mxGeometry relative="1" as="geometry">
            <mxPoint x="406" y="320" as="sourcePoint" />
            <mxPoint x="520" y="265" as="targetPoint" />
          </mxGeometry>
        </mxCell>
      </root>
    </mxGraphModel>
  </diagram>
</mxfile>
